<svg width="20" height="20" viewBox="0 0 20 20" fill="none" xmlns="http://www.w3.org/2000/svg">
    <path fill-rule="evenodd" clip-rule="evenodd" d="M4 3C3.44772 3 3 3.44772 3 4V16C3 16.5523 3.44772 17 4 17H16C16.5523 17 17 16.5523 17 16V7.41421C17 7.149 16.8946 6.89464 16.7071 6.70711L13.2929 3.29289C13.1054 3.10536 12.851 3 12.5858 3H4ZM5 5V15H15V8H12C11.4477 8 11 7.55228 11 7V5H5ZM13 5.41421V6H13.5858L13 5.41421Z" fill="white"/>
    <circle cx="10" cy="11.5" r="2.5" fill="white"/>
    <path d="M12.5 14C12.5 12.6193 11.3807 11.5 10 11.5C8.61929 11.5 7.5 12.6193 7.5 14V14.5H12.5V14Z" fill="white"/>
</svg>