<svg width="20" height="20" viewBox="0 0 20 20" fill="none" xmlns="http://www.w3.org/2000/svg">
    <path fill-rule="evenodd" clip-rule="evenodd" d="M4 3C3.44772 3 3 3.44772 3 4V16C3 16.5523 3.44772 17 4 17H16C16.5523 17 17 16.5523 17 16V7.41421C17 7.149 16.8946 6.89464 16.7071 6.70711L13.2929 3.29289C13.1054 3.10536 12.851 3 12.5858 3H4ZM5 5V15H15V8H12C11.4477 8 11 7.55228 11 7V5H5ZM13 5.41421V6H13.5858L13 5.41421Z" fill="white"/>
    <path d="M7 9C6.44772 9 6 9.44772 6 10C6 10.5523 6.44772 11 7 11H13C13.5523 11 14 10.5523 14 10C14 9.44772 13.5523 9 13 9H7Z" fill="white"/>
    <path d="M6 13C6 12.4477 6.44772 12 7 12H11C11.5523 12 12 12.4477 12 13C12 13.5523 11.5523 14 11 14H7C6.44772 14 6 13.5523 6 13Z" fill="white"/>
</svg>