<svg width="20" height="20" viewBox="0 0 20 20" fill="none" xmlns="http://www.w3.org/2000/svg">
    <path d="M10 7C8.89543 7 8 7.89543 8 9V11C8 12.1046 8.89543 13 10 13C11.1046 13 12 12.1046 12 11V9C12 7.89543 11.1046 7 10 7Z" fill="white"/>
    <path fill-rule="evenodd" clip-rule="evenodd" d="M10 3C9.44772 3 9 3.44772 9 4V6.17071C7.83481 6.58254 7 7.69378 7 9V11C7 12.3063 7.83481 13.4175 9 13.8293V16C9 16.5523 9.44772 17 10 17C10.5523 17 11 16.5523 11 16V13.8293C12.1652 13.4175 13 12.3063 13 11V9C13 7.69378 12.1652 6.58254 11 6.17071V4C11 3.44772 10.5523 3 10 3Z" fill="white"/>
</svg>