<svg width="20" height="20" viewBox="0 0 20 20" fill="none" xmlns="http://www.w3.org/2000/svg">
    <path d="M7 7C7 5.34315 8.34315 4 10 4C11.6569 4 13 5.34315 13 7C13 8.65685 11.6569 10 10 10C8.34315 10 7 8.65685 7 7Z" fill="white"/>
    <path d="M4 15C4 13.3431 5.34315 12 7 12C7.35064 12 7.68722 12.0602 8 12.1707C8.31278 12.0602 8.64936 12 9 12H11C11.3506 12 11.6872 12.0602 12 12.1707C12.3128 12.0602 12.6494 12 13 12C14.6569 12 16 13.3431 16 15V16C16 16.5523 15.5523 17 15 17H5C4.44772 17 4 16.5523 4 16V15Z" fill="white"/>
    <path d="M3 7C3 5.89543 3.89543 5 5 5C5.35064 5 5.68722 5.08027 6 5.22852C5.38604 6.04213 5 7.04662 5 8.125C5 9.20338 5.38604 10.2079 6 11.0215C5.68722 11.1697 5.35064 11.25 5 11.25C3.89543 11.25 3 10.3546 3 9.25V7Z" fill="white"/>
    <path d="M14 5.22852C14.3128 5.08027 14.6494 5 15 5C16.1046 5 17 5.89543 17 7V9.25C17 10.3546 16.1046 11.25 15 11.25C14.6494 11.25 14.3128 11.1697 14 11.0215C14.614 10.2079 15 9.20338 15 8.125C15 7.04662 14.614 6.04213 14 5.22852Z" fill="white"/>
</svg>