<svg width="20" height="20" viewBox="0 0 20 20" fill="none" xmlns="http://www.w3.org/2000/svg">
    <path fill-rule="evenodd" clip-rule="evenodd" d="M10 3C7.79086 3 6 4.79086 6 7C6 9.20914 7.79086 11 10 11C12.2091 11 14 9.20914 14 7C14 4.79086 12.2091 3 10 3ZM8 7C8 5.89543 8.89543 5 10 5C11.1046 5 12 5.89543 12 7C12 8.10457 11.1046 9 10 9C8.89543 9 8 8.10457 8 7Z" fill="white"/>
    <path d="M5 14C5 12.8954 5.89543 12 7 12H13C14.1046 12 15 12.8954 15 14V16C15 16.5523 14.5523 17 14 17H6C5.44772 17 5 16.5523 5 16V14Z" fill="white"/>
</svg>